<?xml version="1.0" encoding="UTF-8"?>
<svg id="Layer_1" data-name="Layer 1" xmlns="http://www.w3.org/2000/svg" version="1.1" viewBox="0 0 343.3 198.8">
  <defs>
    <style>
      .cls-1 {
        fill: #fff;
        stroke-width: 0px;
      }
    </style>
  </defs>
  <g>
    <path class="cls-1" d="M187.3,164.7c0-3.2,0-6.3,0-9.5,0-1.4-.6-3.4,1.4-3.8,1.7-.4,4.4-1.1,5.1.5,1.4,2.8,2.3,1,3.6.4,4.5-2.4,9-2.7,12.9,1,1.3,1.2,1.9,1,3.2,0,3.6-3,7.8-3.6,12.1-1.6,4.4,2,4.6,6.1,4.5,10.3,0,4.2-.2,8.3,0,12.5.2,3.2-1.5,3.4-4,3.4-2.7,0-4-.6-3.9-3.6.2-4.3,0-8.7,0-13,0-2.6-.7-4.8-3.5-5.2-3.1-.4-5,1.3-5.8,4.3-1.1,4.6-.6,9.3-.6,13.9,0,3-1.3,3.5-3.9,3.5-2.8,0-3.9-.8-3.7-3.7.2-4.2,0-8.3,0-12.5,0-2.9-.7-5.4-4.3-5.6-3.3-.1-5,1.9-5.3,4.8-.4,4-.4,8-.3,12,0,2.9,0,4.9-4,4.9-4.5,0-3.8-2.6-3.8-5.2,0-2.7,0-5.3,0-8h0Z"/>
    <path class="cls-1" d="M267.2,131.9c0,3.4-.2,6.2,0,9,.3,3.2-1.1,3.8-4,3.9-3.2,0-3.9-1.2-3.8-4.1.1-9.6,0-19.3,0-28.9,0-1.4-.8-3.4.9-4,1.9-.7,4.6-1.3,6,.5,1.2,1.5,1.5,1.3,2.9.5,6.1-3.3,12.3-2.4,15.9,1.9,4,4.8,4.1,14.7.2,19.7-3.5,4.6-9.9,5.5-16.3,2.3-.4-.2-.9-.3-2-.8ZM280.3,120.8c0-5.3-2.3-8.6-6.2-8.5-4,0-6.7,3.3-6.8,8.3,0,4.9,2.7,8.5,6.5,8.7,3.7.2,6.5-3.4,6.5-8.5Z"/>
    <path class="cls-1" d="M202.4,131.7c0,3.6-.1,6.7,0,9.8.2,2.7-1,3.4-3.5,3.4-2.4,0-4.1,0-4.1-3.3.2-10,0-20,0-30,0-1.3-.8-3.4,1.2-3.9,1.8-.5,4.7-1.2,5.6.4,1.2,2.4,1.9,1.1,3.1.4,5.9-3.1,12.4-2.1,15.9,2.3,3.9,4.9,3.8,14.9,0,19.7-3.6,4.4-10.1,5.3-15.9,2.3-.5-.3-1.1-.6-2.3-1.2ZM215.5,120.8c0-5.4-2.2-8.5-6.2-8.5-3.9,0-6.8,3.5-6.8,8.3,0,4.8,2.8,8.5,6.5,8.6,3.8.1,6.5-3.2,6.5-8.4Z"/>
    <path class="cls-1" d="M249.2,150.5c9.1,0,15.2,5.7,15.1,14.2,0,8-6.3,13.7-15.1,13.7-9.1,0-15.5-5.7-15.4-14,0-8.3,6.2-14,15.4-13.9ZM256.4,164c0-5-3-8.2-7.4-8-4.4.1-7.2,3.5-7.1,8.4.1,5.6,2.8,8.5,7.5,8.5,4.6,0,7.1-3.3,7.1-8.9Z"/>
    <path class="cls-1" d="M240.5,134.6c-9,0-15.1-5.4-15.2-13.6,0-8.3,6.3-14.3,15.1-14.3,9,0,15.4,5.8,15.5,14,0,8.2-6.3,13.9-15.5,13.9ZM248,120.5c0-4.9-2.8-8.1-7.3-8.3-4.4-.2-7.3,3.1-7.4,8.1-.1,5.3,2.8,8.8,7.2,8.9,4.3.1,7.5-3.5,7.5-8.7Z"/>
    <path class="cls-1" d="M157.3,157.7c3.5-5.3,8.4-7.8,14.8-7.1,7.2.8,12,6.4,11.7,13.7-.1,2.2-1.3,2.3-2.9,2.3-4.7,0-9.3,0-14,0-.9,0-2.1-.4-2.6.7-.6,1.2.2,2.3.9,3.1,3.5,3.7,7.7,2.9,12.1,1.9,1.3-.3,3.3-3,4.2.5.6,2.6-.7,3.8-3.2,4.6-14.9,4.6-24.2-4.2-20.9-20.1l-.2.2ZM170.1,162c1.9-1.3,5.6,1.7,5.9-2.1.2-2.9-2.7-4.4-5.6-4.3-3,.1-6.2,1.4-5.9,4.6.3,3.1,3.8.6,5.7,1.7Z"/>
    <path class="cls-1" d="M223.9,83.7c1.7,4.3-.2,6.1-4,6.7-4.1.6-8.3.8-12.3-.7-6.5-2.4-9.6-8.8-8-16.3,1.6-7.1,7.1-11,14.8-10.3,7.3.6,11.4,4.8,12.1,12.1.3,3.1-.7,4.2-3.8,4.1-4-.2-8-.1-12,0-1.3,0-3.3-.9-3.7,1.2-.3,1.5.9,2.9,2.2,3.7,3.3,2.2,6.9,2,10.6.9,1.4-.4,2.8-.8,4.1-1.3ZM213.1,74.6c1.9-1.1,5.5,1.5,5.8-1.8.3-3.2-2.6-4.7-5.8-4.6-2.9,0-6,1.3-5.8,4.2.2,3.9,4,1,5.9,2.2Z"/>
    <path class="cls-1" d="M118.6,70.3c-1.8-4.7.3-6.3,4.1-6.7,2.3-.2,4.6-.6,6.9-.5,7.7.5,10.6,3.6,10.8,11.3.1,4.2.3,8.3.3,12.5,0,1.2.9,2.9-1.1,3.3-1.7.4-4.4,1-5.1-.6-1.3-3.3-2.4-1.3-3.8-.5-3.9,2.4-7.9,2.2-11.9.3-2.9-1.3-4.4-3.6-4.4-6.7,0-3.3,1.5-5.8,4.5-7.1,3.2-1.5,6.7-1.8,10.2-1.9,1.4,0,3.7,1.2,3.8-1.6,0-2.1-1.5-3.2-3.4-3.6-3.9-.9-7.5.5-11.2,1.9ZM129.8,77.9c-2.7.7-7.1-.4-7.6,4.5-.3,2.9,2.2,3.2,4.5,3.3,3.6,0,5.9-1.7,6.6-5.3.5-2.6-1.3-2.5-3.5-2.5Z"/>
    <path class="cls-1" d="M324.7,167.6c0,2,0,4,0,6,0,1.3,1.2,3.3-.9,3.9-1.7.5-4.4,1.1-5.1-.5-1.2-2.8-2.2-1.4-3.5-.5-3.8,2.3-7.8,2.6-11.9.7-2.7-1.3-4.6-3.3-4.7-6.5,0-3.4,1.6-6.1,4.7-7.6,3.4-1.7,7.1-1.6,10.8-1.7,1.2,0,2.9.7,3.2-1.3.2-1.7-.7-2.9-2.2-3.6-3.3-1.6-6.5-.7-9.7.3-1,.3-2.5,2.1-3.2-.1-.5-1.6-1.1-3.9,1.4-4.7,5.7-1.7,11.4-2.5,17,.6,2.8,1.5,3.7,4.2,3.9,7.1.2,2.7,0,5.3,0,8,0,0,.2,0,.3,0ZM310.3,173.3c3.6,0,7-3.1,7-6,0-2.6-2-1.8-3.3-1.8-3.3.1-7.2-.4-7.9,4.1-.5,2.8,2.1,3.4,4.2,3.7Z"/>
    <path class="cls-1" d="M143.4,120.6c0,3,.1,6,0,9,0,1.4,1.1,3.8-1.4,4.1-1.9.3-4.5,1.5-5.7-1.2-1-2.2-1.8-.5-2.5,0-10.6,5.1-17.3,1.1-17.3-10.6,0-3.8.1-7.6,0-11.5-.1-3.1,1.8-3,3.9-3,2,0,4.1-.2,3.9,2.9-.2,4,0,8,0,12,0,3.4.5,6.7,4.7,6.9,3.9.2,6.1-2.4,6.5-6.2.4-4,.5-8,.4-11.9,0-2.8.7-3.8,3.6-3.7,2.8,0,4.4.5,4.1,3.8-.3,3.1,0,6.3,0,9.5Z"/>
    <path class="cls-1" d="M149,120.5c0-3,0-6,0-9,0-3.7,3.7-6.2,6-3.7,2.5,2.8,3.6.8,5.3,0,8.3-3.6,15.2.7,15.5,9.8.1,4.5-.1,9,0,13.5.1,3.2-1.9,2.9-3.9,2.9-1.9,0-4.1.4-3.9-2.9.3-4.3.1-8.7,0-13,0-2.9-.9-5.4-4.3-5.8-3.3-.4-5.5,1.2-6.5,4.2-1.6,4.5-.8,9.2-.8,13.9,0,2.9-1,3.7-3.7,3.6-2.6,0-4-.6-3.8-3.6.2-3.3,0-6.7,0-10h0Z"/>
    <path class="cls-1" d="M268.1,164.2c0-3,0-6,0-9,0-3.7,4.2-6.2,6.4-3.6,1.8,2.1,2.3,1.4,3.9.5,8.8-4.6,16.2-.2,16.5,9.6.1,4.2-.1,8.3,0,12.5.2,3.1-1.3,3.6-3.9,3.5-2.5,0-4.1-.2-4-3.4.2-4.1,0-8.3,0-12.5,0-2.9-.8-5.4-4.2-5.8-3.5-.4-5.7,1.5-6.7,4.7-1.3,4.4-.7,8.9-.7,13.4,0,2.8-.9,3.7-3.8,3.7-2.6,0-4-.5-3.8-3.5.2-3.3,0-6.6,0-10h0Z"/>
    <path class="cls-1" d="M172.6,77c0,3.2,0,6.3,0,9.5,0,1.4.6,3.4-1.5,3.6-1.8.2-4.4,1.3-5.4-.9-1-2.2-1.7-1.1-2.8-.5-10.5,5.1-16.8,1.2-17-10.4,0-3.3,0-6.7,0-10,0-2.6-.2-4.8,3.7-4.8,3.8,0,3.9,1.8,3.9,4.6-.1,3.8,0,7.7,0,11.5,0,2.8.9,5.4,4.3,5.8,3.3.4,5.4-1.2,6.5-4.2,1.7-4.5.8-9.2.9-13.9,0-2.8.8-3.8,3.7-3.7,2.6,0,4.1.5,3.9,3.5-.2,3.3,0,6.7,0,10Z"/>
    <path class="cls-1" d="M183.5,90.8c-.9-.1-2.8-.3-4.6-.5-2.3-.3-2.2-1.9-2-3.7.3-2.5,1.6-1.9,3.1-1.4.6.2,1.3.4,1.9.4,2.7,0,6.5,1.1,7.2-2.5.7-3.7-3.3-3.6-5.6-4.3-3.9-1.2-7.4-2.7-7.2-7.5.2-5,3.6-7,8.1-7.9,2.9-.6,5.6-.2,8.4.1,1.7.2,3.4.3,3,2.9-.3,2.2-1.5,2.6-3.5,2.2-1.9-.4-4-.6-5.9,0-1.2.4-2.1,1.1-2.1,2.5,0,1.2,1,1.7,1.9,2.1,1.7.7,3.5,1.1,5.2,1.7,3.7,1.2,6.1,3.4,5.9,7.6-.1,4.1-2.5,6.3-6.2,7.5-2.3.8-4.6.8-7.8.8Z"/>
    <path class="cls-1" d="M131.2,172.8c3-.3,5.2-1.6,5.4,1.9.2,3.1-1.7,3.1-3.7,3.4-9.8,1.4-16.6-2.9-17.9-11.3-1.7-11.3,8-19.5,19-16.1,1.8.5,2.4,1.4,2.1,3.3-.4,2.2-1.4,2.3-3.5,2.1-7.3-.9-11.4,4.2-9.4,11.1,1.4,4.9,4.9,5.8,8.1,5.5Z"/>
    <path class="cls-1" d="M237.9,67.1c1.4-1.1,2.7-2.4,4.3-3.2,1.4-.8,3.3-1.5,4.7-.4,1.5,1.2.9,3.1.7,4.7-.2,2.4-2.2,1.3-3.5,1.5-4.2.4-5.5,3.5-5.8,6.9-.3,3.3-.3,6.7-.1,10,.2,3.2-1.1,3.8-4,3.9-3.3,0-3.9-1.3-3.8-4.1.2-6.2,0-12.3,0-18.5,0-1.9-.7-4.1,2.6-4.3,3.1-.1,3.8.2,4.8,3.5Z"/>
    <path class="cls-1" d="M157.5,157.5c-8.4-.4-10,1.1-10.2,9.3,0,2.2-.1,4.3,0,6.5.2,2.9-.3,4.5-3.9,4.5-3.7,0-3.9-1.8-3.9-4.6.1-5.8,0-11.6,0-17.5,0-1.7-1-4.3,2.3-4.5,2.5-.1,5.2-.6,4.6,3.9,1.5-1.4,2.2-2.3,3.1-2.9,1.8-1.3,3.9-2.4,6-1.5,2.1.9.9,3.2,1.2,4.9.1.6.3,1.3.4,1.9,0,0,.2-.2.2-.2Z"/>
    <path class="cls-1" d="M189.1,120.6c0,3-.1,6,0,9,.2,2.9-.3,4.5-3.9,4.5-3.7,0-3.9-1.8-3.9-4.6.1-6.1.2-12.3,0-18.4-.2-3.5,1.6-3.6,4.2-3.7,2.9,0,3.8,1,3.6,3.8-.2,3.1,0,6.3,0,9.5Z"/>
    <path class="cls-1" d="M184.5,102.6c-2.8.5-3-1.2-3.1-3.8,0-3.6,2.4-2.7,4.4-2.9,3-.4,3.4,1.2,3.5,3.8,0,3.6-2.4,2.8-4.8,2.9Z"/>
  </g>
  <g>
    <path class="cls-1" d="M115.1,44.7c-.6.6-.8,1.7-.8,2.6,0,1.7,0,3.4,0,5-.2,2.8-1.1,5.2-2,7.8-1.9,4.9-4.9,9.6-8.3,13.6-3.2,4.1-7.1,7.9-11.2,10.9-3.3,2.4-6.6,4.8-10.2,6.7-3.3,1.5-6.4,3.3-9.8,4.5-2.2.9-4.3,1.9-6.7,2.3-1.8.3-3.7.8-5.6.6-3.3-.4-6.5-1.3-9.2-3-2.1-1.2-4.4-2.6-6.1-4.3-1.7-2-3.4-4.1-4.7-6.4-.9-1.5-1.2-3.1-1.4-4.9-.2-3.6-.3-7.5,1.5-10.6.9-1.9,1.7-3.8,2.7-5.6,1.6-2.5,3.6-4.9,5.7-7,4.7-4.8,10.4-8.5,16.3-11.6,4.5-2.2,9.4-4,14.2-5.1,2.4-.7,4.9-1.3,7.4-1.6,2.2-.3,4.4-.7,6.7-.7.9,0,1.8,0,2.8-.1,2.8-.4,5.4-.8,8.2-.9,1.8-.2,1.7-1.3,1.1-2.6-.7-1.2-1.4-2.5-2.4-3.6-1.9-2.2-4.2-3.9-6.9-5.1-2.8-1.6-6.1-2.5-9.2-3.3-1.1-.2-2.2-.4-3.3-.5-2.2-.2-4.4-.7-6.6-.9-1.8,0-3.8,0-5.6,0-1.9.1-3.5.5-5.3.8-1.2.2-2.6.1-3.8.3-2.1.3-4,.9-6.1,1.3-2.8.4-5.2,1.4-7.7,2.3-4.6,1.4-8.8,3.7-12.7,6.4-.8.6-3,1.8-2.3-.1.4-1.1,1.2-2.3,1.8-3.3.8-1.5,1.6-3,2.6-4.4,1.3-1.8,2.4-3.8,4.3-5.1,2.3-1.4,5.1-1.4,7.7-2,3.7-1.1,7.6-1.1,11.4-1,3.1,0,6.1,0,9.2,0,3.4.4,6.9,1.1,10.3,1.7,3.6.8,7,2.1,10.4,3.4,2.9,1.4,5.8,2.6,8.5,4.3,2.6,1.7,5.2,3.6,7.3,5.9,1.3,1.4,2.2,3,3.2,4.6,1.1,1.6,3,2.3,4.8,2.7,8.7,2.1,16.5,6.7,23.3,12.4,1.9,1.8,1.7,3-1.1,1.7-3.2-1.5-6.1-3.6-9.2-5.1-2.1-1.1-10.9-4.8-12.8-2.8h0ZM106.9,44.8c-.6-.7-1.9-.8-3-.8-2.1,0-4.2,0-6.3.1-4,.4-7.9.9-11.7,2-1.2.3-2.4.5-3.7.9-2,.4-4.1.8-6,1.6-2.9,1.4-6.3,2.6-9,4-2.6,1.1-4.8,2.8-7.2,4.3-2.5,1.5-4.5,3.5-6.5,5.5-2.2,2.2-4.4,4.8-5.8,7.6-2.1,4.6-2.9,10-1.5,14.9,1.6,4,5.6,6.9,10,7,3.1.1,5.7-1,8.6-1.9,5.1-1.8,10.1-4.2,14.8-7,3.7-2,7.3-4.5,10.8-7,2.8-2,5.2-4.4,7.6-6.9,1.9-1.8,3.3-3.9,4.5-6.3,1.1-1.8,2.1-3.6,2.7-5.5.9-2.9,4-10,1.8-12.5h0Z"/>
    <path class="cls-1" d="M23.8,43.9c.9-4.7,14.9-1.9,19.1-2.7,1.3.2,26.5-2.2,21.5.8-3,1.4-5.5,3.6-8.7,4.8-7.3,1.3-14.9.3-22.2.6-2.8-.3-4.5,1.5-4.1,4.3.5,18.4-1,37.5,0,55.6,20.9,2,42.8,0,64,.7,2.8.3,4.7-1.3,4.3-4.1.7-6.4-2-17.5,2.4-22,1-1,2.5-2.9,3.3-1.7,1,14.3,0,29,.3,43.1,0,1.6-.3,3.6-1.5,4.6-5.5,2.5-4.3-6.9-4.4-10,.3-2.8-1.9-4-4.4-3.7-21.2.9-43.2-1.9-64,1.6-2.6,3.3,1.4,12.2-5.1,11.7-2.9-1.6-1.5-6.1-1.9-8.9.1-2.8-1.8-3.5-4-3.7-2.6-.2-3.7-3.4-1.7-5.1,2.6-2,6.1-.7,5.7-5.3,0-6.1,0-12.1.7-18.1.5-14.1-.6-28.4.5-42.4h0Z"/>
    <path class="cls-1" d="M39.7,173.3c-2.3,1-10,1.2-11.5-.7-1-1.2-.7-3.3.7-4,2.2-1.1,4.8-.2,7.1-.6,2.8-.8,3.5-4.1,5.1-6.2,1.8-3.1,3.8-6.2,5.5-9.3,2-3.8,4.6-3,7.6-.8,4,3,7.7,6.6,7.3-1.5-.2-2.8.6-6.9-.6-9.3-1-1.3-2.8-1.1-4.4-1.4-3.4-.7-7.3-1-10.2-2.9-5.3-2.6-2.5-17,2.4-18.4,2.3-.1,2.7,2.8,2,4.7-4.6,9.2-1,10.2,7.7,11.4,2.3.7,4.6-.4,3.7-3.1-.6-1.8-2.3-2.9-3.4-4.4-3.1-4.8,2.8-9.7,7.6-8.8,4,.5,7.5,4.7,5.3,8.6-.9,1.7-2.8,2.6-3.5,4.5-1.1,2.5,1.3,4.2,3.6,3.7,3-.7,7.9-.3,8.7-4.2,1-3.5-3.2-9.4.3-11.5,3.4-1.2,4.2,4.9,4.9,7.2.6,4,.4,9.1-3.6,11.3-13.2,6.3-15.1-4.8-15.3,16.2-.6,4.9,4.6,4.2,7.9,3.5,3-.6,6.1-.6,9.1-1,7.9-1.6,4.8,8.8,8.4,12.5,1.1,1.1,3.1,1,4.6,1.5,2,.5,2.7,3,1.3,4.4-1.7,1.6-4.8,1-7.1,1.1-4.8,0-4.6-6.1-5.5-9.5-.4-4.2-3.4-4.7-6.9-4.1-4.5.4-8.9,1.6-13.4,1.6-4.5.5-6.9-3.2-10.4-5.2-4.2-3.6-5.3-.3-7.4,3.2-1.4,2.4-2.8,4.8-4.2,7.2-1,1.5-1.6,3.4-3.2,4.3h0Z"/>
    <path class="cls-1" d="M40.2,118c1.9,1,2.9,3.5,1.9,5.5-.9,1.8-3.2,2.7-5.1,2.6-2.6-.3-5.2-2.4-4.4-5.3.9-3.1,4.9-4.5,7.5-2.8h0Z"/>
    <path class="cls-1" d="M86.8,120.2c1-1.3,3.6-1.5,5.1-1,1.6.6,2.7,2.5,2,4.1-1.1,2-4.8,1.9-6.5.8-1.1-.9-1.4-2.7-.6-3.9h0Z"/>
    <path class="cls-1" d="M103.1,53.7c-1,2.9-2,6.1-3.8,8.5-1.3,1.3-1.7-.9-1.7-1.9,0-2.7,0-5.4,0-8,0-1.5,0-3.1.5-4.2.8-1.5,3.4-2,4.7-1,1.2,1.3.7,4.9.3,6.5h0Z"/>
  </g>
</svg>